<mxfile host="app.diagrams.net" agent="Mozilla/5.0 (Windows NT 10.0; Win64; x64) AppleWebKit/537.36 (KHTML, like Gecko) Chrome/141.0.0.0 Safari/537.36" version="28.2.7">
  <diagram id="prtHgNgQTEPvFCAcTncT" name="Page-1">
    <mxGraphModel dx="1148" dy="536" grid="1" gridSize="10" guides="1" tooltips="1" connect="1" arrows="1" fold="1" page="1" pageScale="1" pageWidth="827" pageHeight="1169" math="0" shadow="0">
      <root>
        <mxCell id="0" />
        <mxCell id="1" parent="0" />
        <mxCell id="wTZwYisXaTnRmxzO6dfM-27" style="edgeStyle=orthogonalEdgeStyle;rounded=0;orthogonalLoop=1;jettySize=auto;html=1;exitX=0.25;exitY=1;exitDx=0;exitDy=0;" edge="1" parent="1" source="wTZwYisXaTnRmxzO6dfM-1" target="wTZwYisXaTnRmxzO6dfM-2">
          <mxGeometry relative="1" as="geometry" />
        </mxCell>
        <mxCell id="wTZwYisXaTnRmxzO6dfM-28" style="edgeStyle=orthogonalEdgeStyle;rounded=0;orthogonalLoop=1;jettySize=auto;html=1;exitX=0.5;exitY=1;exitDx=0;exitDy=0;entryX=0.5;entryY=0;entryDx=0;entryDy=0;" edge="1" parent="1" source="wTZwYisXaTnRmxzO6dfM-1" target="wTZwYisXaTnRmxzO6dfM-4">
          <mxGeometry relative="1" as="geometry" />
        </mxCell>
        <mxCell id="wTZwYisXaTnRmxzO6dfM-29" style="edgeStyle=orthogonalEdgeStyle;rounded=0;orthogonalLoop=1;jettySize=auto;html=1;exitX=0.75;exitY=1;exitDx=0;exitDy=0;" edge="1" parent="1" source="wTZwYisXaTnRmxzO6dfM-1" target="wTZwYisXaTnRmxzO6dfM-5">
          <mxGeometry relative="1" as="geometry" />
        </mxCell>
        <mxCell id="wTZwYisXaTnRmxzO6dfM-1" value="Menu / Switch" style="rounded=0;whiteSpace=wrap;html=1;" vertex="1" parent="1">
          <mxGeometry x="240" y="160" width="120" height="60" as="geometry" />
        </mxCell>
        <mxCell id="wTZwYisXaTnRmxzO6dfM-23" style="edgeStyle=orthogonalEdgeStyle;rounded=0;orthogonalLoop=1;jettySize=auto;html=1;exitX=0.5;exitY=1;exitDx=0;exitDy=0;entryX=0.5;entryY=0;entryDx=0;entryDy=0;" edge="1" parent="1" source="wTZwYisXaTnRmxzO6dfM-2" target="wTZwYisXaTnRmxzO6dfM-8">
          <mxGeometry relative="1" as="geometry" />
        </mxCell>
        <mxCell id="wTZwYisXaTnRmxzO6dfM-2" value="addPerson()" style="rounded=0;whiteSpace=wrap;html=1;" vertex="1" parent="1">
          <mxGeometry x="60" y="300" width="120" height="60" as="geometry" />
        </mxCell>
        <mxCell id="wTZwYisXaTnRmxzO6dfM-3" value="Main()" style="rounded=0;whiteSpace=wrap;html=1;" vertex="1" parent="1">
          <mxGeometry x="240" y="40" width="120" height="60" as="geometry" />
        </mxCell>
        <mxCell id="wTZwYisXaTnRmxzO6dfM-4" value="display()" style="rounded=0;whiteSpace=wrap;html=1;" vertex="1" parent="1">
          <mxGeometry x="240" y="300" width="120" height="60" as="geometry" />
        </mxCell>
        <mxCell id="wTZwYisXaTnRmxzO6dfM-5" value="combineById()" style="rounded=0;whiteSpace=wrap;html=1;" vertex="1" parent="1">
          <mxGeometry x="430" y="300" width="120" height="60" as="geometry" />
        </mxCell>
        <mxCell id="wTZwYisXaTnRmxzO6dfM-6" value="insert()" style="rounded=0;whiteSpace=wrap;html=1;" vertex="1" parent="1">
          <mxGeometry x="160" y="510" width="120" height="60" as="geometry" />
        </mxCell>
        <mxCell id="wTZwYisXaTnRmxzO6dfM-7" value="insert ()" style="rounded=0;whiteSpace=wrap;html=1;" vertex="1" parent="1">
          <mxGeometry y="510" width="120" height="60" as="geometry" />
        </mxCell>
        <mxCell id="wTZwYisXaTnRmxzO6dfM-25" style="edgeStyle=orthogonalEdgeStyle;rounded=0;orthogonalLoop=1;jettySize=auto;html=1;exitX=0.5;exitY=1;exitDx=0;exitDy=0;" edge="1" parent="1" source="wTZwYisXaTnRmxzO6dfM-8" target="wTZwYisXaTnRmxzO6dfM-7">
          <mxGeometry relative="1" as="geometry" />
        </mxCell>
        <mxCell id="wTZwYisXaTnRmxzO6dfM-8" value="insert(Object o)" style="rounded=0;whiteSpace=wrap;html=1;" vertex="1" parent="1">
          <mxGeometry x="60" y="400" width="120" height="60" as="geometry" />
        </mxCell>
        <mxCell id="wTZwYisXaTnRmxzO6dfM-9" value="CabinCrew" style="text;html=1;whiteSpace=wrap;strokeColor=none;fillColor=none;align=center;verticalAlign=middle;rounded=0;" vertex="1" parent="1">
          <mxGeometry x="30" y="480" width="60" height="30" as="geometry" />
        </mxCell>
        <mxCell id="wTZwYisXaTnRmxzO6dfM-10" value="Passanger" style="text;html=1;whiteSpace=wrap;strokeColor=none;fillColor=none;align=center;verticalAlign=middle;rounded=0;" vertex="1" parent="1">
          <mxGeometry x="190" y="480" width="60" height="30" as="geometry" />
        </mxCell>
        <mxCell id="wTZwYisXaTnRmxzO6dfM-11" value="displayList()" style="rounded=0;whiteSpace=wrap;html=1;" vertex="1" parent="1">
          <mxGeometry x="240" y="640" width="120" height="60" as="geometry" />
        </mxCell>
        <mxCell id="wTZwYisXaTnRmxzO6dfM-12" value="deleteByID()" style="rounded=0;whiteSpace=wrap;html=1;" vertex="1" parent="1">
          <mxGeometry x="430" y="540" width="120" height="60" as="geometry" />
        </mxCell>
        <mxCell id="wTZwYisXaTnRmxzO6dfM-13" value="deleteEverywhere()" style="rounded=0;whiteSpace=wrap;html=1;" vertex="1" parent="1">
          <mxGeometry x="430" y="410" width="120" height="60" as="geometry" />
        </mxCell>
        <mxCell id="wTZwYisXaTnRmxzO6dfM-14" value="" style="endArrow=none;dashed=1;html=1;rounded=0;entryX=0.5;entryY=1;entryDx=0;entryDy=0;exitX=0.5;exitY=0;exitDx=0;exitDy=0;" edge="1" parent="1" source="wTZwYisXaTnRmxzO6dfM-13" target="wTZwYisXaTnRmxzO6dfM-5">
          <mxGeometry width="50" height="50" relative="1" as="geometry">
            <mxPoint x="450" y="510" as="sourcePoint" />
            <mxPoint x="500" y="460" as="targetPoint" />
          </mxGeometry>
        </mxCell>
        <mxCell id="wTZwYisXaTnRmxzO6dfM-15" value="" style="endArrow=none;dashed=1;html=1;rounded=0;exitX=0.5;exitY=0;exitDx=0;exitDy=0;entryX=0.5;entryY=1;entryDx=0;entryDy=0;" edge="1" parent="1" source="wTZwYisXaTnRmxzO6dfM-12" target="wTZwYisXaTnRmxzO6dfM-13">
          <mxGeometry width="50" height="50" relative="1" as="geometry">
            <mxPoint x="450" y="510" as="sourcePoint" />
            <mxPoint x="500" y="460" as="targetPoint" />
          </mxGeometry>
        </mxCell>
        <mxCell id="wTZwYisXaTnRmxzO6dfM-16" value="" style="endArrow=none;dashed=1;html=1;rounded=0;entryX=0.5;entryY=1;entryDx=0;entryDy=0;exitX=0.5;exitY=0;exitDx=0;exitDy=0;" edge="1" parent="1" source="wTZwYisXaTnRmxzO6dfM-11" target="wTZwYisXaTnRmxzO6dfM-4">
          <mxGeometry width="50" height="50" relative="1" as="geometry">
            <mxPoint x="350" y="510" as="sourcePoint" />
            <mxPoint x="400" y="460" as="targetPoint" />
          </mxGeometry>
        </mxCell>
        <mxCell id="wTZwYisXaTnRmxzO6dfM-22" value="" style="endArrow=classic;html=1;rounded=0;exitX=0.5;exitY=1;exitDx=0;exitDy=0;entryX=0.5;entryY=0;entryDx=0;entryDy=0;" edge="1" parent="1" source="wTZwYisXaTnRmxzO6dfM-3" target="wTZwYisXaTnRmxzO6dfM-1">
          <mxGeometry width="50" height="50" relative="1" as="geometry">
            <mxPoint x="240" y="240" as="sourcePoint" />
            <mxPoint x="290" y="190" as="targetPoint" />
          </mxGeometry>
        </mxCell>
        <mxCell id="wTZwYisXaTnRmxzO6dfM-24" style="edgeStyle=orthogonalEdgeStyle;rounded=0;orthogonalLoop=1;jettySize=auto;html=1;exitX=0.75;exitY=1;exitDx=0;exitDy=0;entryX=0.539;entryY=0.045;entryDx=0;entryDy=0;entryPerimeter=0;" edge="1" parent="1" source="wTZwYisXaTnRmxzO6dfM-8" target="wTZwYisXaTnRmxzO6dfM-6">
          <mxGeometry relative="1" as="geometry" />
        </mxCell>
        <mxCell id="wTZwYisXaTnRmxzO6dfM-30" value="Option 1:AddPrerson" style="text;html=1;whiteSpace=wrap;strokeColor=none;fillColor=none;align=center;verticalAlign=middle;rounded=0;" vertex="1" parent="1">
          <mxGeometry x="50" y="230" width="130" height="30" as="geometry" />
        </mxCell>
        <mxCell id="wTZwYisXaTnRmxzO6dfM-31" value="Option 2:DisplayList" style="text;html=1;whiteSpace=wrap;strokeColor=none;fillColor=none;align=center;verticalAlign=middle;rounded=0;" vertex="1" parent="1">
          <mxGeometry x="180" y="270" width="110" height="30" as="geometry" />
        </mxCell>
        <mxCell id="wTZwYisXaTnRmxzO6dfM-32" value="Option 4:CombineByID" style="text;html=1;whiteSpace=wrap;strokeColor=none;fillColor=none;align=center;verticalAlign=middle;rounded=0;" vertex="1" parent="1">
          <mxGeometry x="490" y="260" width="130" height="30" as="geometry" />
        </mxCell>
        <mxCell id="wTZwYisXaTnRmxzO6dfM-33" value="Option 3: Delete by ID" style="text;html=1;whiteSpace=wrap;strokeColor=none;fillColor=none;align=center;verticalAlign=middle;rounded=0;" vertex="1" parent="1">
          <mxGeometry x="550" y="480" width="140" height="30" as="geometry" />
        </mxCell>
      </root>
    </mxGraphModel>
  </diagram>
</mxfile>
